<mxfile host="Electron" modified="2024-06-26T09:26:19.007Z" agent="Mozilla/5.0 (Macintosh; Intel Mac OS X 10_15_7) AppleWebKit/537.36 (KHTML, like Gecko) draw.io/24.5.3 Chrome/124.0.6367.207 Electron/30.0.6 Safari/537.36" etag="HTyl5v-IIobcSLIzHBAr" version="24.5.3" type="device">
  <diagram name="Page-1" id="6kFIX5o8c1vGUrvYZGmL">
    <mxGraphModel dx="1718" dy="1371" grid="1" gridSize="10" guides="1" tooltips="1" connect="1" arrows="1" fold="1" page="1" pageScale="1" pageWidth="1100" pageHeight="850" math="1" shadow="1">
      <root>
        <mxCell id="0" />
        <mxCell id="1" parent="0" />
        <mxCell id="cz6YA0elysQhP-N-1jxG-1" value="$$s_0$$" style="strokeWidth=2;html=1;shape=mxgraph.flowchart.start_2;whiteSpace=wrap;hachureGap=4;fontFamily=Architects Daughter;fontSource=https%3A%2F%2Ffonts.googleapis.com%2Fcss%3Ffamily%3DArchitects%2BDaughter;fontSize=18;rounded=0;labelBackgroundColor=none;" vertex="1" parent="1">
          <mxGeometry x="140" y="350" width="40" height="40" as="geometry" />
        </mxCell>
        <mxCell id="cz6YA0elysQhP-N-1jxG-2" value="$$s_1$$" style="strokeWidth=2;html=1;shape=mxgraph.flowchart.start_2;whiteSpace=wrap;hachureGap=4;fontFamily=Architects Daughter;fontSource=https%3A%2F%2Ffonts.googleapis.com%2Fcss%3Ffamily%3DArchitects%2BDaughter;fontSize=18;rounded=0;labelBackgroundColor=none;" vertex="1" parent="1">
          <mxGeometry x="270" y="350" width="40" height="40" as="geometry" />
        </mxCell>
        <mxCell id="cz6YA0elysQhP-N-1jxG-3" value="$$s_2$$" style="strokeWidth=2;html=1;shape=mxgraph.flowchart.start_2;whiteSpace=wrap;hachureGap=4;fontFamily=Architects Daughter;fontSource=https%3A%2F%2Ffonts.googleapis.com%2Fcss%3Ffamily%3DArchitects%2BDaughter;fontSize=18;rounded=0;labelBackgroundColor=none;" vertex="1" parent="1">
          <mxGeometry x="400" y="350" width="40" height="40" as="geometry" />
        </mxCell>
        <mxCell id="cz6YA0elysQhP-N-1jxG-4" value="$$s_3$$" style="strokeWidth=2;html=1;shape=mxgraph.flowchart.start_2;whiteSpace=wrap;hachureGap=4;fontFamily=Architects Daughter;fontSource=https%3A%2F%2Ffonts.googleapis.com%2Fcss%3Ffamily%3DArchitects%2BDaughter;fontSize=18;rounded=0;labelBackgroundColor=none;" vertex="1" parent="1">
          <mxGeometry x="270" y="240" width="40" height="40" as="geometry" />
        </mxCell>
        <mxCell id="cz6YA0elysQhP-N-1jxG-5" value="$$s_4$$" style="strokeWidth=2;html=1;shape=mxgraph.flowchart.start_2;whiteSpace=wrap;hachureGap=4;fontFamily=Architects Daughter;fontSource=https%3A%2F%2Ffonts.googleapis.com%2Fcss%3Ffamily%3DArchitects%2BDaughter;fontSize=18;rounded=0;labelBackgroundColor=none;" vertex="1" parent="1">
          <mxGeometry x="400" y="470" width="40" height="40" as="geometry" />
        </mxCell>
        <mxCell id="cz6YA0elysQhP-N-1jxG-6" value="$$s_5$$" style="strokeWidth=2;html=1;shape=mxgraph.flowchart.start_2;whiteSpace=wrap;hachureGap=4;fontFamily=Architects Daughter;fontSource=https%3A%2F%2Ffonts.googleapis.com%2Fcss%3Ffamily%3DArchitects%2BDaughter;fontSize=18;rounded=0;labelBackgroundColor=none;" vertex="1" parent="1">
          <mxGeometry x="400" y="240" width="40" height="40" as="geometry" />
        </mxCell>
        <mxCell id="cz6YA0elysQhP-N-1jxG-7" style="edgeStyle=none;curved=1;rounded=0;orthogonalLoop=1;jettySize=auto;html=1;entryX=0;entryY=0.5;entryDx=0;entryDy=0;entryPerimeter=0;fontSize=12;startSize=8;endSize=8;" edge="1" parent="1" source="cz6YA0elysQhP-N-1jxG-1" target="cz6YA0elysQhP-N-1jxG-2">
          <mxGeometry relative="1" as="geometry">
            <Array as="points">
              <mxPoint x="230" y="350" />
            </Array>
          </mxGeometry>
        </mxCell>
        <mxCell id="cz6YA0elysQhP-N-1jxG-14" value="$$\iota_{01}, \omicron_{01}$$" style="edgeLabel;html=1;align=center;verticalAlign=middle;resizable=0;points=[];fontSize=12;textDirection=ltr;labelBackgroundColor=none;labelBorderColor=none;textShadow=0;" vertex="1" connectable="0" parent="cz6YA0elysQhP-N-1jxG-7">
          <mxGeometry x="-0.0014" y="-9" relative="1" as="geometry">
            <mxPoint x="-8" y="-13" as="offset" />
          </mxGeometry>
        </mxCell>
        <mxCell id="cz6YA0elysQhP-N-1jxG-8" style="edgeStyle=none;curved=1;rounded=0;orthogonalLoop=1;jettySize=auto;html=1;entryX=0;entryY=0.5;entryDx=0;entryDy=0;entryPerimeter=0;fontSize=12;startSize=8;endSize=8;" edge="1" parent="1" source="cz6YA0elysQhP-N-1jxG-2" target="cz6YA0elysQhP-N-1jxG-3">
          <mxGeometry relative="1" as="geometry">
            <Array as="points">
              <mxPoint x="360" y="380" />
            </Array>
          </mxGeometry>
        </mxCell>
        <mxCell id="cz6YA0elysQhP-N-1jxG-16" value="&lt;span style=&quot;&quot;&gt;$$\iota_{12}, o_{12}$$&lt;/span&gt;" style="edgeLabel;html=1;align=center;verticalAlign=middle;resizable=0;points=[];fontSize=12;labelBackgroundColor=none;" vertex="1" connectable="0" parent="cz6YA0elysQhP-N-1jxG-8">
          <mxGeometry x="-0.0142" y="4" relative="1" as="geometry">
            <mxPoint x="-2" y="8" as="offset" />
          </mxGeometry>
        </mxCell>
        <mxCell id="cz6YA0elysQhP-N-1jxG-9" style="edgeStyle=none;curved=1;rounded=0;orthogonalLoop=1;jettySize=auto;html=1;entryX=0.855;entryY=0.855;entryDx=0;entryDy=0;entryPerimeter=0;fontSize=12;startSize=8;endSize=8;" edge="1" parent="1" source="cz6YA0elysQhP-N-1jxG-3" target="cz6YA0elysQhP-N-1jxG-6">
          <mxGeometry relative="1" as="geometry">
            <Array as="points">
              <mxPoint x="450" y="310" />
            </Array>
          </mxGeometry>
        </mxCell>
        <mxCell id="cz6YA0elysQhP-N-1jxG-17" value="&lt;span style=&quot;&quot;&gt;$$\iota_{25}, o_{25}$$&lt;/span&gt;" style="edgeLabel;html=1;align=center;verticalAlign=middle;resizable=0;points=[];fontSize=12;labelBackgroundColor=none;" vertex="1" connectable="0" parent="cz6YA0elysQhP-N-1jxG-9">
          <mxGeometry x="-0.1467" y="6" relative="1" as="geometry">
            <mxPoint x="29" as="offset" />
          </mxGeometry>
        </mxCell>
        <mxCell id="cz6YA0elysQhP-N-1jxG-10" style="edgeStyle=none;curved=1;rounded=0;orthogonalLoop=1;jettySize=auto;html=1;entryX=0.855;entryY=0.855;entryDx=0;entryDy=0;entryPerimeter=0;fontSize=12;startSize=8;endSize=8;" edge="1" parent="1" source="cz6YA0elysQhP-N-1jxG-3" target="cz6YA0elysQhP-N-1jxG-4">
          <mxGeometry relative="1" as="geometry">
            <Array as="points">
              <mxPoint x="340" y="330" />
            </Array>
          </mxGeometry>
        </mxCell>
        <mxCell id="cz6YA0elysQhP-N-1jxG-15" value="&lt;span style=&quot;&quot;&gt;$$\iota_{23}, o_{23}$$&lt;/span&gt;" style="edgeLabel;html=1;align=center;verticalAlign=middle;resizable=0;points=[];fontSize=12;labelBackgroundColor=none;" vertex="1" connectable="0" parent="cz6YA0elysQhP-N-1jxG-10">
          <mxGeometry x="-0.0553" y="-8" relative="1" as="geometry">
            <mxPoint x="-27" as="offset" />
          </mxGeometry>
        </mxCell>
        <mxCell id="cz6YA0elysQhP-N-1jxG-11" style="edgeStyle=none;curved=1;rounded=0;orthogonalLoop=1;jettySize=auto;html=1;entryX=0.5;entryY=0;entryDx=0;entryDy=0;entryPerimeter=0;fontSize=12;startSize=8;endSize=8;" edge="1" parent="1" source="cz6YA0elysQhP-N-1jxG-3" target="cz6YA0elysQhP-N-1jxG-5">
          <mxGeometry relative="1" as="geometry">
            <Array as="points">
              <mxPoint x="430" y="430" />
            </Array>
          </mxGeometry>
        </mxCell>
        <mxCell id="cz6YA0elysQhP-N-1jxG-18" value="&lt;span style=&quot;&quot;&gt;$$\iota_{24}, o_{24}$$&lt;/span&gt;" style="edgeLabel;html=1;align=center;verticalAlign=middle;resizable=0;points=[];fontSize=12;labelBackgroundColor=none;" vertex="1" connectable="0" parent="cz6YA0elysQhP-N-1jxG-11">
          <mxGeometry x="-0.2376" y="-2" relative="1" as="geometry">
            <mxPoint x="33" as="offset" />
          </mxGeometry>
        </mxCell>
        <mxCell id="cz6YA0elysQhP-N-1jxG-13" value="" style="edgeStyle=none;orthogonalLoop=1;jettySize=auto;html=1;rounded=0;fontSize=12;startSize=8;endSize=8;curved=1;entryX=0.1;entryY=0.325;entryDx=0;entryDy=0;entryPerimeter=0;" edge="1" parent="1" source="cz6YA0elysQhP-N-1jxG-20" target="cz6YA0elysQhP-N-1jxG-1">
          <mxGeometry width="120" relative="1" as="geometry">
            <mxPoint x="50" y="370" as="sourcePoint" />
            <mxPoint x="140" y="369.5" as="targetPoint" />
            <Array as="points">
              <mxPoint x="80" y="340" />
            </Array>
          </mxGeometry>
        </mxCell>
        <mxCell id="cz6YA0elysQhP-N-1jxG-20" value="Start" style="text;strokeColor=none;fillColor=none;html=1;align=center;verticalAlign=middle;whiteSpace=wrap;rounded=0;fontSize=16;fontFamily=Architects Daughter;fontSource=https%3A%2F%2Ffonts.googleapis.com%2Fcss%3Ffamily%3DArchitects%2BDaughter;" vertex="1" parent="1">
          <mxGeometry x="20" y="370" width="60" height="30" as="geometry" />
        </mxCell>
        <mxCell id="cz6YA0elysQhP-N-1jxG-21" value="&amp;nbsp; &amp;nbsp; &amp;nbsp;Comunicación" style="html=1;outlineConnect=0;whiteSpace=wrap;fillColor=#FFFF33;shape=mxgraph.archimate3.valueStream;hachureGap=4;fontFamily=Architects Daughter;fontSource=https%3A%2F%2Ffonts.googleapis.com%2Fcss%3Ffamily%3DArchitects%2BDaughter;strokeColor=none;fontColor=#FC00A8;gradientColor=none;shadow=1;" vertex="1" parent="1">
          <mxGeometry x="560" y="350" width="125" height="62.5" as="geometry" />
        </mxCell>
        <mxCell id="cz6YA0elysQhP-N-1jxG-23" value="&amp;nbsp; &amp;nbsp; Planeación" style="html=1;outlineConnect=0;whiteSpace=wrap;fillColor=#3399FF;shape=mxgraph.archimate3.valueStream;hachureGap=4;fontFamily=Architects Daughter;fontSource=https%3A%2F%2Ffonts.googleapis.com%2Fcss%3Ffamily%3DArchitects%2BDaughter;strokeColor=none;fontColor=#FFFF00;gradientColor=none;shadow=1;" vertex="1" parent="1">
          <mxGeometry x="660" y="350" width="125" height="62.5" as="geometry" />
        </mxCell>
        <mxCell id="cz6YA0elysQhP-N-1jxG-24" value="&amp;nbsp; &amp;nbsp;Modelado" style="html=1;outlineConnect=0;whiteSpace=wrap;fillColor=#9933FF;shape=mxgraph.archimate3.valueStream;hachureGap=4;fontFamily=Architects Daughter;fontSource=https%3A%2F%2Ffonts.googleapis.com%2Fcss%3Ffamily%3DArchitects%2BDaughter;strokeColor=none;fontColor=#99FFFF;gradientColor=none;shadow=1;" vertex="1" parent="1">
          <mxGeometry x="760" y="350" width="125" height="62.5" as="geometry" />
        </mxCell>
        <mxCell id="cz6YA0elysQhP-N-1jxG-25" value="&amp;nbsp; &amp;nbsp; &amp;nbsp;Construcción" style="html=1;outlineConnect=0;whiteSpace=wrap;fillColor=#00FF00;shape=mxgraph.archimate3.valueStream;hachureGap=4;fontFamily=Architects Daughter;fontSource=https%3A%2F%2Ffonts.googleapis.com%2Fcss%3Ffamily%3DArchitects%2BDaughter;strokeColor=none;fontColor=#9933FF;gradientColor=none;shadow=1;" vertex="1" parent="1">
          <mxGeometry x="860" y="350" width="125" height="62.5" as="geometry" />
        </mxCell>
        <mxCell id="cz6YA0elysQhP-N-1jxG-26" value="&amp;nbsp; &amp;nbsp;&lt;font color=&quot;#22ff00&quot;&gt;Despliegue&lt;/font&gt;" style="html=1;outlineConnect=0;whiteSpace=wrap;fillColor=#FF33FF;shape=mxgraph.archimate3.valueStream;hachureGap=4;fontFamily=Architects Daughter;fontSource=https%3A%2F%2Ffonts.googleapis.com%2Fcss%3Ffamily%3DArchitects%2BDaughter;strokeColor=none;fontColor=#9933FF;gradientColor=none;shadow=1;" vertex="1" parent="1">
          <mxGeometry x="960" y="350" width="125" height="62.5" as="geometry" />
        </mxCell>
        <mxCell id="cz6YA0elysQhP-N-1jxG-28" value="&amp;nbsp; &amp;nbsp; Specification" style="html=1;outlineConnect=0;whiteSpace=wrap;fillColor=#3399FF;shape=mxgraph.archimate3.valueStream;hachureGap=4;fontFamily=Architects Daughter;fontSource=https%3A%2F%2Ffonts.googleapis.com%2Fcss%3Ffamily%3DArchitects%2BDaughter;strokeColor=none;fontColor=#FFFF00;gradientColor=none;shadow=1;" vertex="1" parent="1">
          <mxGeometry x="660" y="470" width="125" height="62.5" as="geometry" />
        </mxCell>
        <mxCell id="cz6YA0elysQhP-N-1jxG-29" value="&amp;nbsp; &amp;nbsp; Development" style="html=1;outlineConnect=0;whiteSpace=wrap;fillColor=#9933FF;shape=mxgraph.archimate3.valueStream;hachureGap=4;fontFamily=Architects Daughter;fontSource=https%3A%2F%2Ffonts.googleapis.com%2Fcss%3Ffamily%3DArchitects%2BDaughter;strokeColor=none;fontColor=#99FFFF;gradientColor=none;shadow=1;" vertex="1" parent="1">
          <mxGeometry x="760" y="470" width="125" height="62.5" as="geometry" />
        </mxCell>
        <mxCell id="cz6YA0elysQhP-N-1jxG-30" value="&amp;nbsp; &amp;nbsp;Validation" style="html=1;outlineConnect=0;whiteSpace=wrap;fillColor=#00FF00;shape=mxgraph.archimate3.valueStream;hachureGap=4;fontFamily=Architects Daughter;fontSource=https%3A%2F%2Ffonts.googleapis.com%2Fcss%3Ffamily%3DArchitects%2BDaughter;strokeColor=none;fontColor=#9933FF;gradientColor=none;shadow=1;" vertex="1" parent="1">
          <mxGeometry x="860" y="470" width="125" height="62.5" as="geometry" />
        </mxCell>
        <mxCell id="cz6YA0elysQhP-N-1jxG-31" value="&amp;nbsp; &amp;nbsp;&lt;font color=&quot;#22ff00&quot;&gt;Evolution&lt;/font&gt;" style="html=1;outlineConnect=0;whiteSpace=wrap;fillColor=#FF33FF;shape=mxgraph.archimate3.valueStream;hachureGap=4;fontFamily=Architects Daughter;fontSource=https%3A%2F%2Ffonts.googleapis.com%2Fcss%3Ffamily%3DArchitects%2BDaughter;strokeColor=none;fontColor=#9933FF;gradientColor=none;shadow=1;" vertex="1" parent="1">
          <mxGeometry x="960" y="470" width="125" height="62.5" as="geometry" />
        </mxCell>
        <mxCell id="cz6YA0elysQhP-N-1jxG-32" value="&amp;nbsp; &amp;nbsp; &amp;nbsp;Comunicación" style="html=1;outlineConnect=0;whiteSpace=wrap;shape=mxgraph.archimate3.valueStream;hachureGap=4;fontFamily=Architects Daughter;fontSource=https%3A%2F%2Ffonts.googleapis.com%2Fcss%3Ffamily%3DArchitects%2BDaughter;shadow=1;" vertex="1" parent="1">
          <mxGeometry x="560" y="580" width="125" height="62.5" as="geometry" />
        </mxCell>
        <mxCell id="cz6YA0elysQhP-N-1jxG-33" value="&amp;nbsp; &amp;nbsp; Planeación" style="html=1;outlineConnect=0;whiteSpace=wrap;shape=mxgraph.archimate3.valueStream;hachureGap=4;fontFamily=Architects Daughter;fontSource=https%3A%2F%2Ffonts.googleapis.com%2Fcss%3Ffamily%3DArchitects%2BDaughter;shadow=1;" vertex="1" parent="1">
          <mxGeometry x="660" y="580" width="125" height="62.5" as="geometry" />
        </mxCell>
        <mxCell id="cz6YA0elysQhP-N-1jxG-34" value="&amp;nbsp; &amp;nbsp;Modelado" style="html=1;outlineConnect=0;whiteSpace=wrap;shape=mxgraph.archimate3.valueStream;hachureGap=4;fontFamily=Architects Daughter;fontSource=https%3A%2F%2Ffonts.googleapis.com%2Fcss%3Ffamily%3DArchitects%2BDaughter;shadow=1;" vertex="1" parent="1">
          <mxGeometry x="760" y="580" width="125" height="62.5" as="geometry" />
        </mxCell>
        <mxCell id="cz6YA0elysQhP-N-1jxG-35" value="&amp;nbsp; &amp;nbsp; &amp;nbsp;Construcción" style="html=1;outlineConnect=0;whiteSpace=wrap;shape=mxgraph.archimate3.valueStream;hachureGap=4;fontFamily=Architects Daughter;fontSource=https%3A%2F%2Ffonts.googleapis.com%2Fcss%3Ffamily%3DArchitects%2BDaughter;shadow=1;" vertex="1" parent="1">
          <mxGeometry x="860" y="580" width="125" height="62.5" as="geometry" />
        </mxCell>
        <mxCell id="cz6YA0elysQhP-N-1jxG-36" value="&amp;nbsp; &amp;nbsp;&lt;font&gt;Despliegue&lt;/font&gt;" style="html=1;outlineConnect=0;whiteSpace=wrap;shape=mxgraph.archimate3.valueStream;hachureGap=4;fontFamily=Architects Daughter;fontSource=https%3A%2F%2Ffonts.googleapis.com%2Fcss%3Ffamily%3DArchitects%2BDaughter;shadow=1;" vertex="1" parent="1">
          <mxGeometry x="960" y="580" width="125" height="62.5" as="geometry" />
        </mxCell>
        <mxCell id="cz6YA0elysQhP-N-1jxG-37" value="&amp;nbsp; &amp;nbsp; Specification" style="html=1;outlineConnect=0;whiteSpace=wrap;shape=mxgraph.archimate3.valueStream;hachureGap=4;fontFamily=Architects Daughter;fontSource=https%3A%2F%2Ffonts.googleapis.com%2Fcss%3Ffamily%3DArchitects%2BDaughter;shadow=1;" vertex="1" parent="1">
          <mxGeometry x="660" y="700" width="125" height="62.5" as="geometry" />
        </mxCell>
        <mxCell id="cz6YA0elysQhP-N-1jxG-38" value="&amp;nbsp; &amp;nbsp; Development" style="html=1;outlineConnect=0;whiteSpace=wrap;shape=mxgraph.archimate3.valueStream;hachureGap=4;fontFamily=Architects Daughter;fontSource=https%3A%2F%2Ffonts.googleapis.com%2Fcss%3Ffamily%3DArchitects%2BDaughter;shadow=1;" vertex="1" parent="1">
          <mxGeometry x="760" y="700" width="125" height="62.5" as="geometry" />
        </mxCell>
        <mxCell id="cz6YA0elysQhP-N-1jxG-39" value="&amp;nbsp; &amp;nbsp;Validation" style="html=1;outlineConnect=0;whiteSpace=wrap;shape=mxgraph.archimate3.valueStream;hachureGap=4;fontFamily=Architects Daughter;fontSource=https%3A%2F%2Ffonts.googleapis.com%2Fcss%3Ffamily%3DArchitects%2BDaughter;shadow=1;" vertex="1" parent="1">
          <mxGeometry x="860" y="700" width="125" height="62.5" as="geometry" />
        </mxCell>
        <mxCell id="cz6YA0elysQhP-N-1jxG-40" value="&amp;nbsp; &amp;nbsp;&lt;font&gt;Evolution&lt;/font&gt;" style="html=1;outlineConnect=0;whiteSpace=wrap;shape=mxgraph.archimate3.valueStream;hachureGap=4;fontFamily=Architects Daughter;fontSource=https%3A%2F%2Ffonts.googleapis.com%2Fcss%3Ffamily%3DArchitects%2BDaughter;shadow=1;" vertex="1" parent="1">
          <mxGeometry x="960" y="700" width="125" height="62.5" as="geometry" />
        </mxCell>
      </root>
    </mxGraphModel>
  </diagram>
</mxfile>
